<mxfile host="Electron" modified="2023-05-08T14:07:52.811Z" agent="Mozilla/5.0 (Macintosh; Intel Mac OS X 10_15_7) AppleWebKit/537.36 (KHTML, like Gecko) draw.io/21.2.8 Chrome/112.0.5615.165 Electron/24.2.0 Safari/537.36" etag="e5J3iETxiWpUUq1jzY9F" version="21.2.8" type="device">
  <diagram name="페이지-1" id="NLzG4CfWzQy_-L5DRV-g">
    <mxGraphModel dx="3215" dy="1348" grid="1" gridSize="10" guides="1" tooltips="1" connect="1" arrows="1" fold="1" page="1" pageScale="1" pageWidth="827" pageHeight="1169" math="0" shadow="0">
      <root>
        <mxCell id="0" />
        <mxCell id="1" parent="0" />
        <mxCell id="PzIf2BC7cRbmbO2KDa_z-9" value="&amp;lt;&amp;lt;control&amp;gt;&amp;gt;&lt;br&gt;Control :: Logout" style="swimlane;fontStyle=1;align=center;verticalAlign=middle;childLayout=stackLayout;horizontal=1;startSize=29;horizontalStack=0;resizeParent=1;resizeParentMax=0;resizeLast=0;collapsible=0;marginBottom=0;html=1;whiteSpace=wrap;" vertex="1" parent="1">
          <mxGeometry x="-550" y="450" width="190" height="80" as="geometry" />
        </mxCell>
        <mxCell id="PzIf2BC7cRbmbO2KDa_z-10" value="" style="endArrow=none;html=1;rounded=0;" edge="1" parent="PzIf2BC7cRbmbO2KDa_z-9">
          <mxGeometry width="50" height="50" relative="1" as="geometry">
            <mxPoint y="39" as="sourcePoint" />
            <mxPoint x="190" y="40" as="targetPoint" />
          </mxGeometry>
        </mxCell>
        <mxCell id="PzIf2BC7cRbmbO2KDa_z-68" value="tryLogin()" style="text;html=1;strokeColor=none;fillColor=none;align=center;verticalAlign=middle;whiteSpace=wrap;rounded=0;" vertex="1" parent="PzIf2BC7cRbmbO2KDa_z-9">
          <mxGeometry y="29" width="190" height="51" as="geometry" />
        </mxCell>
        <mxCell id="PzIf2BC7cRbmbO2KDa_z-11" value="&amp;lt;&amp;lt;boundary&amp;gt;&amp;gt;&lt;br&gt;User Interface :: LogoutUI&amp;nbsp;" style="swimlane;fontStyle=1;align=center;verticalAlign=middle;childLayout=stackLayout;horizontal=1;startSize=40;horizontalStack=0;resizeParent=1;resizeParentMax=0;resizeLast=0;collapsible=0;marginBottom=0;html=1;whiteSpace=wrap;" vertex="1" parent="1">
          <mxGeometry x="-550" y="320" width="190" height="100" as="geometry" />
        </mxCell>
        <mxCell id="PzIf2BC7cRbmbO2KDa_z-12" value="" style="endArrow=none;html=1;rounded=0;" edge="1" parent="PzIf2BC7cRbmbO2KDa_z-11">
          <mxGeometry width="50" height="50" relative="1" as="geometry">
            <mxPoint y="50" as="sourcePoint" />
            <mxPoint x="190" y="50" as="targetPoint" />
          </mxGeometry>
        </mxCell>
        <mxCell id="PzIf2BC7cRbmbO2KDa_z-67" value="tryLogout()&lt;br&gt;startInterface()" style="text;html=1;strokeColor=none;fillColor=none;align=center;verticalAlign=middle;whiteSpace=wrap;rounded=0;" vertex="1" parent="PzIf2BC7cRbmbO2KDa_z-11">
          <mxGeometry y="40" width="190" height="60" as="geometry" />
        </mxCell>
        <mxCell id="PzIf2BC7cRbmbO2KDa_z-23" value="&amp;lt;&amp;lt;control&amp;gt;&amp;gt;&lt;br&gt;Control :: Login" style="swimlane;fontStyle=1;align=center;verticalAlign=middle;childLayout=stackLayout;horizontal=1;startSize=29;horizontalStack=0;resizeParent=1;resizeParentMax=0;resizeLast=0;collapsible=0;marginBottom=0;html=1;whiteSpace=wrap;" vertex="1" parent="1">
          <mxGeometry x="-780" y="450" width="190" height="80" as="geometry" />
        </mxCell>
        <mxCell id="PzIf2BC7cRbmbO2KDa_z-24" value="" style="endArrow=none;html=1;rounded=0;" edge="1" parent="PzIf2BC7cRbmbO2KDa_z-23">
          <mxGeometry width="50" height="50" relative="1" as="geometry">
            <mxPoint y="39" as="sourcePoint" />
            <mxPoint x="190" y="40" as="targetPoint" />
          </mxGeometry>
        </mxCell>
        <mxCell id="PzIf2BC7cRbmbO2KDa_z-66" value="tryLogin()" style="text;html=1;strokeColor=none;fillColor=none;align=center;verticalAlign=middle;whiteSpace=wrap;rounded=0;" vertex="1" parent="PzIf2BC7cRbmbO2KDa_z-23">
          <mxGeometry y="29" width="190" height="51" as="geometry" />
        </mxCell>
        <mxCell id="PzIf2BC7cRbmbO2KDa_z-25" value="&amp;lt;&amp;lt;boundary&amp;gt;&amp;gt;&lt;br&gt;User Interface :: LoginUI" style="swimlane;fontStyle=1;align=center;verticalAlign=middle;childLayout=stackLayout;horizontal=1;startSize=40;horizontalStack=0;resizeParent=1;resizeParentMax=0;resizeLast=0;collapsible=0;marginBottom=0;html=1;whiteSpace=wrap;" vertex="1" parent="1">
          <mxGeometry x="-780" y="320" width="190" height="100" as="geometry" />
        </mxCell>
        <mxCell id="PzIf2BC7cRbmbO2KDa_z-26" value="" style="endArrow=none;html=1;rounded=0;" edge="1" parent="PzIf2BC7cRbmbO2KDa_z-25">
          <mxGeometry width="50" height="50" relative="1" as="geometry">
            <mxPoint y="50" as="sourcePoint" />
            <mxPoint x="190" y="50" as="targetPoint" />
          </mxGeometry>
        </mxCell>
        <mxCell id="PzIf2BC7cRbmbO2KDa_z-43" value="tryLogin()&lt;br&gt;startInterface()" style="text;html=1;strokeColor=none;fillColor=none;align=center;verticalAlign=middle;whiteSpace=wrap;rounded=0;" vertex="1" parent="PzIf2BC7cRbmbO2KDa_z-25">
          <mxGeometry y="40" width="190" height="60" as="geometry" />
        </mxCell>
        <mxCell id="PzIf2BC7cRbmbO2KDa_z-44" style="edgeStyle=orthogonalEdgeStyle;rounded=0;orthogonalLoop=1;jettySize=auto;html=1;exitX=0.5;exitY=1;exitDx=0;exitDy=0;" edge="1" parent="PzIf2BC7cRbmbO2KDa_z-25" source="PzIf2BC7cRbmbO2KDa_z-43" target="PzIf2BC7cRbmbO2KDa_z-43">
          <mxGeometry relative="1" as="geometry" />
        </mxCell>
        <mxCell id="PzIf2BC7cRbmbO2KDa_z-27" value="&amp;lt;&amp;lt;control&amp;gt;&amp;gt;&lt;br&gt;Control :: AddMember" style="swimlane;fontStyle=1;align=center;verticalAlign=middle;childLayout=stackLayout;horizontal=1;startSize=29;horizontalStack=0;resizeParent=1;resizeParentMax=0;resizeLast=0;collapsible=0;marginBottom=0;html=1;whiteSpace=wrap;" vertex="1" parent="1">
          <mxGeometry x="-780" y="160" width="190" height="110" as="geometry" />
        </mxCell>
        <mxCell id="PzIf2BC7cRbmbO2KDa_z-28" value="" style="endArrow=none;html=1;rounded=0;" edge="1" parent="PzIf2BC7cRbmbO2KDa_z-27">
          <mxGeometry width="50" height="50" relative="1" as="geometry">
            <mxPoint y="39" as="sourcePoint" />
            <mxPoint x="190" y="40" as="targetPoint" />
          </mxGeometry>
        </mxCell>
        <mxCell id="PzIf2BC7cRbmbO2KDa_z-41" value="addNewGeneralMember()&lt;br&gt;addNewCompanyMember()&lt;br&gt;" style="text;html=1;strokeColor=none;fillColor=none;align=center;verticalAlign=middle;whiteSpace=wrap;rounded=0;" vertex="1" parent="PzIf2BC7cRbmbO2KDa_z-27">
          <mxGeometry y="29" width="190" height="81" as="geometry" />
        </mxCell>
        <mxCell id="PzIf2BC7cRbmbO2KDa_z-29" value="&amp;lt;&amp;lt;boundary&amp;gt;&amp;gt;&lt;br&gt;User Interface :: AddMemberUI&amp;nbsp;" style="swimlane;fontStyle=1;align=center;verticalAlign=middle;childLayout=stackLayout;horizontal=1;startSize=40;horizontalStack=0;resizeParent=1;resizeParentMax=0;resizeLast=0;collapsible=0;marginBottom=0;html=1;whiteSpace=wrap;" vertex="1" parent="1">
          <mxGeometry x="-780" y="30" width="190" height="110" as="geometry" />
        </mxCell>
        <mxCell id="PzIf2BC7cRbmbO2KDa_z-30" value="" style="endArrow=none;html=1;rounded=0;" edge="1" parent="PzIf2BC7cRbmbO2KDa_z-29">
          <mxGeometry width="50" height="50" relative="1" as="geometry">
            <mxPoint y="50" as="sourcePoint" />
            <mxPoint x="190" y="50" as="targetPoint" />
          </mxGeometry>
        </mxCell>
        <mxCell id="PzIf2BC7cRbmbO2KDa_z-37" value="&lt;h1&gt;&lt;br&gt;&lt;/h1&gt;" style="text;html=1;strokeColor=none;fillColor=none;spacing=5;spacingTop=-20;whiteSpace=wrap;overflow=hidden;rounded=0;" vertex="1" parent="PzIf2BC7cRbmbO2KDa_z-29">
          <mxGeometry y="40" width="190" height="10" as="geometry" />
        </mxCell>
        <mxCell id="PzIf2BC7cRbmbO2KDa_z-39" style="edgeStyle=orthogonalEdgeStyle;rounded=0;orthogonalLoop=1;jettySize=auto;html=1;exitX=0.5;exitY=1;exitDx=0;exitDy=0;" edge="1" parent="PzIf2BC7cRbmbO2KDa_z-29" source="PzIf2BC7cRbmbO2KDa_z-37" target="PzIf2BC7cRbmbO2KDa_z-37">
          <mxGeometry relative="1" as="geometry" />
        </mxCell>
        <mxCell id="PzIf2BC7cRbmbO2KDa_z-38" value="createNewMember()&lt;br&gt;startInterface()" style="text;html=1;strokeColor=none;fillColor=none;align=center;verticalAlign=middle;whiteSpace=wrap;rounded=0;" vertex="1" parent="PzIf2BC7cRbmbO2KDa_z-29">
          <mxGeometry y="50" width="190" height="60" as="geometry" />
        </mxCell>
        <mxCell id="PzIf2BC7cRbmbO2KDa_z-31" value="&amp;lt;&amp;lt;control&amp;gt;&amp;gt;&lt;br&gt;Control :: DeleteMember" style="swimlane;fontStyle=1;align=center;verticalAlign=middle;childLayout=stackLayout;horizontal=1;startSize=29;horizontalStack=0;resizeParent=1;resizeParentMax=0;resizeLast=0;collapsible=0;marginBottom=0;html=1;whiteSpace=wrap;" vertex="1" parent="1">
          <mxGeometry x="-550" y="160" width="210" height="80" as="geometry" />
        </mxCell>
        <mxCell id="PzIf2BC7cRbmbO2KDa_z-32" value="" style="endArrow=none;html=1;rounded=0;" edge="1" parent="PzIf2BC7cRbmbO2KDa_z-31">
          <mxGeometry width="50" height="50" relative="1" as="geometry">
            <mxPoint y="39" as="sourcePoint" />
            <mxPoint x="190" y="40" as="targetPoint" />
          </mxGeometry>
        </mxCell>
        <mxCell id="PzIf2BC7cRbmbO2KDa_z-70" value="deleteMemberAuth()" style="text;html=1;strokeColor=none;fillColor=none;align=center;verticalAlign=middle;whiteSpace=wrap;rounded=0;" vertex="1" parent="PzIf2BC7cRbmbO2KDa_z-31">
          <mxGeometry y="29" width="210" height="51" as="geometry" />
        </mxCell>
        <mxCell id="PzIf2BC7cRbmbO2KDa_z-33" value="&amp;lt;&amp;lt;boundary&amp;gt;&amp;gt;&lt;br&gt;User Interface :: DeleteMemberUI&amp;nbsp;" style="swimlane;fontStyle=1;align=center;verticalAlign=middle;childLayout=stackLayout;horizontal=1;startSize=40;horizontalStack=0;resizeParent=1;resizeParentMax=0;resizeLast=0;collapsible=0;marginBottom=0;html=1;whiteSpace=wrap;" vertex="1" parent="1">
          <mxGeometry x="-550" y="30" width="210" height="100" as="geometry" />
        </mxCell>
        <mxCell id="PzIf2BC7cRbmbO2KDa_z-34" value="" style="endArrow=none;html=1;rounded=0;" edge="1" parent="PzIf2BC7cRbmbO2KDa_z-33">
          <mxGeometry width="50" height="50" relative="1" as="geometry">
            <mxPoint y="50" as="sourcePoint" />
            <mxPoint x="210" y="50" as="targetPoint" />
          </mxGeometry>
        </mxCell>
        <mxCell id="PzIf2BC7cRbmbO2KDa_z-69" value="tryDelete()&lt;br&gt;startInterface()" style="text;html=1;strokeColor=none;fillColor=none;align=center;verticalAlign=middle;whiteSpace=wrap;rounded=0;" vertex="1" parent="PzIf2BC7cRbmbO2KDa_z-33">
          <mxGeometry y="40" width="210" height="60" as="geometry" />
        </mxCell>
        <mxCell id="PzIf2BC7cRbmbO2KDa_z-50" value="&amp;lt;&amp;lt;entity&amp;gt;&amp;gt;&lt;br&gt;&lt;b&gt;Member&lt;/b&gt;" style="swimlane;fontStyle=0;align=center;verticalAlign=top;childLayout=stackLayout;horizontal=1;startSize=40;horizontalStack=0;resizeParent=1;resizeParentMax=0;resizeLast=0;collapsible=0;marginBottom=0;html=1;whiteSpace=wrap;" vertex="1" parent="1">
          <mxGeometry x="-570" y="590" width="160" height="170" as="geometry" />
        </mxCell>
        <mxCell id="PzIf2BC7cRbmbO2KDa_z-52" value="phoneNumper&lt;br&gt;address&lt;br&gt;id&lt;br&gt;password" style="text;html=1;strokeColor=none;fillColor=none;align=left;verticalAlign=middle;spacingLeft=4;spacingRight=4;overflow=hidden;rotatable=0;points=[[0,0.5],[1,0.5]];portConstraint=eastwest;whiteSpace=wrap;" vertex="1" parent="PzIf2BC7cRbmbO2KDa_z-50">
          <mxGeometry y="40" width="160" height="60" as="geometry" />
        </mxCell>
        <mxCell id="PzIf2BC7cRbmbO2KDa_z-55" value="" style="line;strokeWidth=1;fillColor=none;align=left;verticalAlign=middle;spacingTop=-1;spacingLeft=3;spacingRight=3;rotatable=0;labelPosition=right;points=[];portConstraint=eastwest;" vertex="1" parent="PzIf2BC7cRbmbO2KDa_z-50">
          <mxGeometry y="100" width="160" height="8" as="geometry" />
        </mxCell>
        <mxCell id="PzIf2BC7cRbmbO2KDa_z-57" value="addNewGeneralMember()&lt;br&gt;addNewCompanyMember()&lt;br&gt;checkValidation()&lt;br&gt;deleteMemberAuth()" style="text;html=1;strokeColor=none;fillColor=none;align=left;verticalAlign=middle;spacingLeft=4;spacingRight=4;overflow=hidden;rotatable=0;points=[[0,0.5],[1,0.5]];portConstraint=eastwest;whiteSpace=wrap;" vertex="1" parent="PzIf2BC7cRbmbO2KDa_z-50">
          <mxGeometry y="108" width="160" height="62" as="geometry" />
        </mxCell>
        <mxCell id="PzIf2BC7cRbmbO2KDa_z-58" value="&amp;lt;&amp;lt;entity&amp;gt;&amp;gt;&lt;br&gt;&lt;b&gt;GenMember&lt;/b&gt;" style="swimlane;fontStyle=0;align=center;verticalAlign=top;childLayout=stackLayout;horizontal=1;startSize=40;horizontalStack=0;resizeParent=1;resizeParentMax=0;resizeLast=0;collapsible=0;marginBottom=0;html=1;whiteSpace=wrap;" vertex="1" parent="1">
          <mxGeometry x="-670" y="940" width="160" height="160" as="geometry" />
        </mxCell>
        <mxCell id="PzIf2BC7cRbmbO2KDa_z-59" value="name&lt;br&gt;socialNum" style="text;html=1;strokeColor=none;fillColor=none;align=left;verticalAlign=middle;spacingLeft=4;spacingRight=4;overflow=hidden;rotatable=0;points=[[0,0.5],[1,0.5]];portConstraint=eastwest;whiteSpace=wrap;" vertex="1" parent="PzIf2BC7cRbmbO2KDa_z-58">
          <mxGeometry y="40" width="160" height="60" as="geometry" />
        </mxCell>
        <mxCell id="PzIf2BC7cRbmbO2KDa_z-60" value="" style="line;strokeWidth=1;fillColor=none;align=left;verticalAlign=middle;spacingTop=-1;spacingLeft=3;spacingRight=3;rotatable=0;labelPosition=right;points=[];portConstraint=eastwest;" vertex="1" parent="PzIf2BC7cRbmbO2KDa_z-58">
          <mxGeometry y="100" width="160" height="8" as="geometry" />
        </mxCell>
        <mxCell id="PzIf2BC7cRbmbO2KDa_z-61" value="createGeneralNumber()" style="text;html=1;strokeColor=none;fillColor=none;align=left;verticalAlign=middle;spacingLeft=4;spacingRight=4;overflow=hidden;rotatable=0;points=[[0,0.5],[1,0.5]];portConstraint=eastwest;whiteSpace=wrap;" vertex="1" parent="PzIf2BC7cRbmbO2KDa_z-58">
          <mxGeometry y="108" width="160" height="52" as="geometry" />
        </mxCell>
        <mxCell id="PzIf2BC7cRbmbO2KDa_z-62" value="&amp;lt;&amp;lt;entity&amp;gt;&amp;gt;&lt;br&gt;&lt;b&gt;CompMember&lt;/b&gt;" style="swimlane;fontStyle=0;align=center;verticalAlign=top;childLayout=stackLayout;horizontal=1;startSize=40;horizontalStack=0;resizeParent=1;resizeParentMax=0;resizeLast=0;collapsible=0;marginBottom=0;html=1;whiteSpace=wrap;" vertex="1" parent="1">
          <mxGeometry x="-470" y="940" width="160" height="160" as="geometry" />
        </mxCell>
        <mxCell id="PzIf2BC7cRbmbO2KDa_z-63" value="companyName&lt;br&gt;businessNum&lt;br&gt;businessField" style="text;html=1;strokeColor=none;fillColor=none;align=left;verticalAlign=middle;spacingLeft=4;spacingRight=4;overflow=hidden;rotatable=0;points=[[0,0.5],[1,0.5]];portConstraint=eastwest;whiteSpace=wrap;" vertex="1" parent="PzIf2BC7cRbmbO2KDa_z-62">
          <mxGeometry y="40" width="160" height="60" as="geometry" />
        </mxCell>
        <mxCell id="PzIf2BC7cRbmbO2KDa_z-64" value="" style="line;strokeWidth=1;fillColor=none;align=left;verticalAlign=middle;spacingTop=-1;spacingLeft=3;spacingRight=3;rotatable=0;labelPosition=right;points=[];portConstraint=eastwest;" vertex="1" parent="PzIf2BC7cRbmbO2KDa_z-62">
          <mxGeometry y="100" width="160" height="8" as="geometry" />
        </mxCell>
        <mxCell id="PzIf2BC7cRbmbO2KDa_z-65" value="createCompanyNumber()" style="text;html=1;strokeColor=none;fillColor=none;align=left;verticalAlign=middle;spacingLeft=4;spacingRight=4;overflow=hidden;rotatable=0;points=[[0,0.5],[1,0.5]];portConstraint=eastwest;whiteSpace=wrap;" vertex="1" parent="PzIf2BC7cRbmbO2KDa_z-62">
          <mxGeometry y="108" width="160" height="52" as="geometry" />
        </mxCell>
        <mxCell id="PzIf2BC7cRbmbO2KDa_z-71" value="" style="endArrow=block;endSize=16;endFill=0;html=1;rounded=0;exitX=0.5;exitY=0;exitDx=0;exitDy=0;entryX=0.372;entryY=0.976;entryDx=0;entryDy=0;entryPerimeter=0;" edge="1" parent="1" source="PzIf2BC7cRbmbO2KDa_z-58" target="PzIf2BC7cRbmbO2KDa_z-57">
          <mxGeometry width="160" relative="1" as="geometry">
            <mxPoint x="-510" y="930" as="sourcePoint" />
            <mxPoint x="-500" y="770" as="targetPoint" />
          </mxGeometry>
        </mxCell>
        <mxCell id="PzIf2BC7cRbmbO2KDa_z-72" value="" style="endArrow=block;endSize=16;endFill=0;html=1;rounded=0;exitX=0.5;exitY=0;exitDx=0;exitDy=0;entryX=0.625;entryY=1;entryDx=0;entryDy=0;entryPerimeter=0;" edge="1" parent="1" source="PzIf2BC7cRbmbO2KDa_z-62" target="PzIf2BC7cRbmbO2KDa_z-57">
          <mxGeometry width="160" relative="1" as="geometry">
            <mxPoint x="-370" y="800" as="sourcePoint" />
            <mxPoint x="-500" y="760" as="targetPoint" />
            <Array as="points" />
          </mxGeometry>
        </mxCell>
      </root>
    </mxGraphModel>
  </diagram>
</mxfile>
